<svg width="24" height="24" viewBox="0 0 24 24" xmlns="http://www.w3.org/2000/svg">
<g id="ri:bug-2-fill">
<path id="Vector" d="M5.84 15.4695C5.79822 15.1643 5.77743 14.8565 5.77778 14.5482V13.627H4V11.7844H5.77778V10.8631C5.77778 10.5499 5.79911 10.2422 5.84 9.94184H4V8.09928H6.37689C6.92175 6.91223 7.80223 5.92512 8.90133 5.26911L7.968 4.30177L9.22667 3L10.7227 4.55143C11.5657 4.36884 12.4361 4.36884 13.2791 4.55143L14.7751 3L16.032 4.30361L15.0987 5.27095C16.1978 5.92637 17.0786 6.91281 17.624 8.09928H20V9.94184H18.16C18.2009 10.2431 18.2222 10.5508 18.2222 10.8631V11.7844H20V13.627H18.2222V14.5482C18.2222 14.8615 18.2009 15.1692 18.16 15.4695H20V17.3121H17.6231C17.1188 18.4154 16.3226 19.3477 15.3272 20.0006C14.3318 20.6534 13.178 21 12 21C10.822 21 9.66824 20.6534 8.67282 20.0006C7.67739 19.3477 6.88122 18.4154 6.37689 17.3121H4V15.4695H5.84ZM9.33333 9.94184V11.7844H14.6667V9.94184H9.33333ZM9.33333 13.627V15.4695H14.6667V13.627H9.33333Z" />
</g>
</svg>
