<svg width="10" height="11" viewBox="0 0 16 17" fill="none" xmlns="http://www.w3.org/2000/svg">
<path d="M15.5 15.6668C15.5 15.8878 15.4122 16.0998 15.2559 16.256C15.0996 16.4123 14.8877 16.5001 14.6667 16.5001H1.33333C1.11232 16.5001 0.900358 16.4123 0.744078 16.256C0.587797 16.0998 0.5 15.8878 0.5 15.6668V6.76178C0.49995 6.6359 0.528416 6.51165 0.583261 6.39835C0.638106 6.28506 0.717905 6.18565 0.816667 6.10761L7.48333 0.848444C7.63046 0.732186 7.81249 0.668945 8 0.668945C8.18751 0.668945 8.36954 0.732186 8.51667 0.848444L15.1833 6.10678C15.2822 6.18491 15.3621 6.28444 15.4169 6.39789C15.4718 6.51135 15.5002 6.63576 15.5 6.76178V15.6668ZM3.83333 9.00011C3.83333 10.1052 4.27232 11.165 5.05372 11.9464C5.83512 12.7278 6.89493 13.1668 8 13.1668C9.10507 13.1668 10.1649 12.7278 10.9463 11.9464C11.7277 11.165 12.1667 10.1052 12.1667 9.00011H10.5C10.5 9.66315 10.2366 10.299 9.76777 10.7679C9.29893 11.2367 8.66304 11.5001 8 11.5001C7.33696 11.5001 6.70107 11.2367 6.23223 10.7679C5.76339 10.299 5.5 9.66315 5.5 9.00011H3.83333Z" fill="#046C4E"/>
</svg>
