<svg width="24" height="24" viewBox="0 0 24 24" xmlns="http://www.w3.org/2000/svg">
<g id="ri:home-smile-2-fill">
<path id="Vector" d="M20 19.1051C20 19.3425 19.9063 19.5701 19.7396 19.7379C19.573 19.9057 19.3469 20 19.1111 20H4.88889C4.65314 20 4.42705 19.9057 4.26035 19.7379C4.09365 19.5701 4 19.3425 4 19.1051V9.54267C3.99995 9.40751 4.03031 9.27408 4.08881 9.15242C4.14731 9.03075 4.23243 8.92401 4.33778 8.84021L11.4489 3.19275C11.6058 3.06791 11.8 3 12 3C12.2 3 12.3942 3.06791 12.5511 3.19275L19.6622 8.83931C19.7677 8.92321 19.8529 9.0301 19.9114 9.15193C19.9699 9.27375 20.0002 9.40735 20 9.54267V19.1051ZM7.55556 11.9463C7.55556 13.1329 8.02381 14.271 8.8573 15.1101C9.6908 15.9492 10.8213 16.4206 12 16.4206C13.1787 16.4206 14.3092 15.9492 15.1427 15.1101C15.9762 14.271 16.4444 13.1329 16.4444 11.9463H14.6667C14.6667 12.6583 14.3857 13.3411 13.8856 13.8445C13.3855 14.348 12.7072 14.6308 12 14.6308C11.2928 14.6308 10.6145 14.348 10.1144 13.8445C9.61428 13.3411 9.33333 12.6583 9.33333 11.9463H7.55556Z"/>
</g>
</svg>
