<svg width="72" height="72" viewBox="0 0 16 16" fill="none" xmlns="http://www.w3.org/2000/svg">
<path d="M16 6.22133V15.1111C16 15.3469 15.9157 15.573 15.7657 15.7397C15.6157 15.9064 15.4122 16 15.2 16H8.8V6.22133H16ZM7.2 11.5547V16H0.8C0.587827 16 0.384344 15.9064 0.234315 15.7397C0.0842854 15.573 0 15.3469 0 15.1111V11.5547H7.2ZM7.2 0V9.77689H0V0.888889C0 0.653141 0.0842854 0.427048 0.234315 0.260349C0.384344 0.0936505 0.587827 0 0.8 0H7.2ZM15.2 0C15.4122 0 15.6157 0.0936505 15.7657 0.260349C15.9157 0.427048 16 0.653141 16 0.888889V4.44356H8.8V0H15.2Z" fill="#057A55"/>
</svg>
