<svg viewBox="0 0 24 24" xmlns="http://www.w3.org/2000/svg">
<g id="ri:layout-masonry-fill">
<path id="Vector" d="M20 10.2213V19.1111C20 19.3469 19.9157 19.573 19.7657 19.7397C19.6157 19.9064 19.4122 20 19.2 20H12.8V10.2213H20ZM11.2 15.5547V20H4.8C4.58783 20 4.38434 19.9064 4.23431 19.7397C4.08429 19.573 4 19.3469 4 19.1111V15.5547H11.2ZM11.2 4V13.7769H4V4.88889C4 4.65314 4.08429 4.42705 4.23431 4.26035C4.38434 4.09365 4.58783 4 4.8 4H11.2ZM19.2 4C19.4122 4 19.6157 4.09365 19.7657 4.26035C19.9157 4.42705 20 4.65314 20 4.88889V8.44356H12.8V4H19.2Z"/>
</g>
</svg>
