<svg width="24" height="24" viewBox="0 0 24 24"  xmlns="http://www.w3.org/2000/svg">
<g id="ri:ball-pen-fill">
<path id="Vector" d="M17.5161 11.6328L16.8717 10.9893L7.86095 20H4V16.1381L14.2977 5.83954L19.4465 10.9884C19.6172 11.1591 19.713 11.3905 19.713 11.6319C19.713 11.8732 19.6172 12.1047 19.4465 12.2754L13.0098 18.7112L11.7228 17.4242L17.5151 11.6319L17.5161 11.6328ZM18.1586 3.26649L20.7335 5.84045C20.9041 6.01114 21 6.2426 21 6.48394C21 6.72529 20.9041 6.95675 20.7335 7.12744L19.4456 8.41533L15.5838 4.55347L16.8707 3.26649C17.0414 3.09586 17.2729 3 17.5142 3C17.7556 3 17.988 3.09586 18.1586 3.26649Z"/>
</g>
</svg>
