<svg width="24" height="24" viewBox="0 0 24 24" xmlns="http://www.w3.org/2000/svg">
<g id="icon-plant">
<path id="Vector" d="M20 4.8V6.4C20 7.88521 19.379 9.3096 18.2735 10.3598C17.168 11.41 15.6686 12 14.1053 12H13.2632V12.8H17.4737V18.4C17.4737 18.8243 17.2962 19.2313 16.9804 19.5314C16.6645 19.8314 16.2362 20 15.7895 20H9.05263C8.60595 20 8.17757 19.8314 7.86171 19.5314C7.54586 19.2313 7.36842 18.8243 7.36842 18.4V12.8H11.5789V10.4C11.5789 8.91479 12.2 7.49041 13.3055 6.4402C14.411 5.39 15.9103 4.8 17.4737 4.8H20ZM6.94737 4C7.95787 3.99922 8.95378 4.22911 9.85125 4.6703C10.7487 5.11149 11.5215 5.75108 12.1044 6.5352C11.2151 7.64632 10.7346 9.00418 10.7368 10.4V11.2H10.3158C8.64074 11.2 7.03429 10.5679 5.84985 9.44264C4.66541 8.31742 4 6.7913 4 5.2V4H6.94737Z"/>
</g>
</svg>
