<svg width="24" height="24" viewBox="0 0 24 24" xmlns="http://www.w3.org/2000/svg">
<g id="ri:ruler-2-fill">
<path id="Vector" d="M14.6667 20H12.8889V17.3333H11.1111V20H9.33333V18.2222H7.55556V20H4.88889C4.65314 20 4.42705 19.9064 4.26035 19.7397C4.09365 19.573 4 19.3469 4 19.1111V16.4444H5.77778V14.6667H4V12.8889H6.66667V11.1111H4V9.33333H5.77778V7.55556H4V4.88889C4 4.65314 4.09365 4.42705 4.26035 4.26035C4.42705 4.09365 4.65314 4 4.88889 4H10.2222C10.458 4 10.6841 4.09365 10.8508 4.26035C11.0175 4.42705 11.1111 4.65314 11.1111 4.88889V12.8889H19.1111C19.3469 12.8889 19.573 12.9825 19.7397 13.1492C19.9064 13.3159 20 13.542 20 13.7778V19.1111C20 19.3469 19.9064 19.573 19.7397 19.7397C19.573 19.9064 19.3469 20 19.1111 20H16.4444V18.2222H14.6667V20Z"/>
</g>
</svg>
