<svg width="24" height="24" viewBox="0 0 24 24" xmlns="http://www.w3.org/2000/svg">
<g id="ri:screenshot-line">
<path id="Vector" d="M11.9938 14.2061L10.6142 15.5947C11.0559 16.3438 11.2109 17.2293 11.0503 18.0853C10.8898 18.9412 10.4245 19.7088 9.74187 20.2442C9.05922 20.7796 8.206 21.046 7.34217 20.9935C6.47833 20.941 5.66318 20.5731 5.04951 19.9589C4.43585 19.3447 4.0658 18.5263 4.00873 17.6571C3.95167 16.7879 4.2115 15.9276 4.73953 15.2375C5.26756 14.5473 6.02753 14.0747 6.87699 13.9082C7.72644 13.7417 8.60706 13.8928 9.35378 14.3331L10.736 12.9409L7.016 9.19653L8.27378 7.9305L11.9938 11.6749L15.7173 7.92692L16.9742 9.19205L13.2498 12.9409L14.6382 14.3367C15.3837 13.8943 16.2639 13.7407 17.1138 13.9047C17.9637 14.0688 18.725 14.5393 19.255 15.2279C19.785 15.9166 20.0472 16.7761 19.9926 17.6455C19.938 18.5148 19.5702 19.3343 18.9583 19.9502C18.3463 20.5662 17.5322 20.9363 16.6685 20.9913C15.8049 21.0463 14.9509 20.7823 14.2667 20.2489C13.5826 19.7154 13.1152 18.9491 12.9522 18.0936C12.7892 17.2381 12.9418 16.3522 13.3813 15.6018L11.9938 14.2061ZM7.55556 19.2102C8.02705 19.2102 8.47924 19.0217 8.81263 18.6861C9.14603 18.3505 9.33333 17.8954 9.33333 17.4208C9.33333 16.9462 9.14603 16.491 8.81263 16.1555C8.47924 15.8199 8.02705 15.6313 7.55556 15.6313C7.08406 15.6313 6.63187 15.8199 6.29848 16.1555C5.96508 16.491 5.77778 16.9462 5.77778 17.4208C5.77778 17.8954 5.96508 18.3505 6.29848 18.6861C6.63187 19.0217 7.08406 19.2102 7.55556 19.2102ZM16.4444 19.2102C16.9159 19.2102 17.3681 19.0217 17.7015 18.6861C18.0349 18.3505 18.2222 17.8954 18.2222 17.4208C18.2222 16.9462 18.0349 16.491 17.7015 16.1555C17.3681 15.8199 16.9159 15.6313 16.4444 15.6313C15.9729 15.6313 15.5208 15.8199 15.1874 16.1555C14.854 16.491 14.6667 16.9462 14.6667 17.4208C14.6667 17.8954 14.854 18.3505 15.1874 18.6861C15.5208 19.0217 15.9729 19.2102 16.4444 19.2102ZM18.2222 12.9472V5.78944H5.77778V12.9472H4V4.89472C4 4.65742 4.09365 4.42985 4.26035 4.26206C4.42705 4.09426 4.65314 4 4.88889 4H19.1111C19.3469 4 19.573 4.09426 19.7397 4.26206C19.9064 4.42985 20 4.65742 20 4.89472V12.9472H18.2222Z"/>
</g>
</svg>
