<svg width="24" height="24" viewBox="0 0 24 24" xmlns="http://www.w3.org/2000/svg">
<g id="ri:seedling-fill">
<path id="Vector" d="M21 7.55556V9.77778C21 11.3101 20.3837 12.7797 19.2866 13.8633C18.1895 14.9468 16.7015 15.5556 15.15 15.5556H12.9V20H11.1V13.7778L11.1171 12.8889C11.2305 11.4377 11.8942 10.0823 12.9756 9.09353C14.0569 8.10475 15.4763 7.5555 16.95 7.55556H21ZM6.6 4C7.92246 3.99996 9.21142 4.41078 10.2844 5.17427C11.3574 5.93777 12.16 7.01527 12.5787 8.25422C11.8901 8.83073 11.326 9.53812 10.9198 10.3343C10.5136 11.1305 10.2737 11.9993 10.2144 12.8889H9.3C7.62914 12.8889 6.02671 12.2333 4.84523 11.0664C3.66375 9.89955 3 8.3169 3 6.66667V4H6.6Z"/>
</g>
</svg>
